<svg xmlns="http://www.w3.org/2000/svg" viewBox="0 0 640 640" width="640" height="640" role="img"><title>tt-tnt</title><desc>A cartoon creature with TT-TNT on its chest, drawn in marker on a burned CD-R, eyeing the disc centre hole.</desc><defs><radialGradient id="dye" cx="44%" cy="40%"><stop offset="0" stop-color="#9BE3DA" stop-opacity=".5"/><stop offset=".55" stop-color="#4FD1C5"/><stop offset="1" stop-color="#4FD1C5"/></radialGradient></defs><circle cx="320.0" cy="320.0" r="306.0" fill="url(#dye)"/><circle cx="320.0" cy="320.0" r="274.0" fill="none" stroke="#fff" stroke-width="9.0" stroke-opacity="0.18"/><circle cx="320.0" cy="320.0" r="224.0" fill="none" stroke="#fff" stroke-width="7.0" stroke-opacity="0.12"/><circle cx="320.0" cy="320.0" r="96.0" fill="#EFE7D6" fill-opacity=".20"/><g transform="rotate(-3 313 182)"><path d="M170.5,69.3 L219.2,71.3 L264.4,70.3 L313.9,71.2 L359.4,69.7 L407.4,69.1 L456.9,69.8 L454.4,69.5 L457.5,105.8 L456.7,144.0 L455.2,183.5 L455.8,218.4 L456.1,257.0 L456.1,292.8 L455.1,295.5 L408.1,294.5 L361.9,293.9 L313.5,295.1 L265.4,292.7 L218.0,293.1 L170.5,295.5 L170.9,294.9 L170.3,257.6 L169.1,218.2 L170.3,182.7 L168.4,143.7 L168.7,106.9 L169.0,69.5 Z" fill="#EFE7D6" fill-opacity=".92" stroke="#08201f" stroke-width="7.5" stroke-linejoin="round"/><path d="M287.6,122.6 L286.4,125.6 L285.6,128.6 L284.7,131.6 L284.6,134.4 L282.6,136.8 L282.3,139.4 L280.4,141.9 L278.2,144.1 L275.4,147.4 L272.7,148.9 L270.7,150.6 L267.8,150.6 L265.0,152.2 L262.0,152.1 L258.9,154.3 L255.8,154.1 L252.7,152.7 L249.6,152.6 L246.9,151.5 L243.9,151.7 L241.2,149.6 L239.1,148.0 L235.6,146.4 L233.2,144.7 L231.8,142.6 L229.4,139.8 L228.7,137.1 L228.0,134.7 L225.9,131.7 L225.6,128.6 L225.8,125.8 L224.5,122.6 L225.8,119.7 L225.0,116.7 L226.2,113.5 L226.9,110.6 L228.7,108.5 L230.6,105.6 L231.7,103.2 L233.5,100.2 L236.6,98.7 L238.7,96.0 L240.9,95.2 L243.7,93.3 L246.7,92.0 L249.7,92.6 L252.7,91.8 L255.8,90.9 L258.8,91.1 L261.7,92.4 L264.7,93.6 L267.4,93.3 L270.5,95.7 L272.8,96.7 L274.9,98.4 L277.1,101.1 L279.7,103.3 L281.3,105.8 L283.8,107.9 L283.8,110.6 L284.7,113.7 L285.7,116.6 L286.7,119.5 L287.5,122.6" fill="#fff" stroke="#08201f" stroke-width="5.0"/><circle cx="261" cy="127" r="13" fill="#08201f"/><path d="M381.9,122.6 L381.6,125.7 L379.7,128.8 L379.6,131.4 L377.9,134.7 L377.2,137.3 L375.4,139.7 L374.8,142.8 L372.4,144.7 L369.3,147.3 L367.2,149.0 L365.0,149.7 L362.0,150.6 L359.0,152.3 L356.2,153.1 L353.3,154.1 L350.2,154.3 L347.1,153.8 L344.2,153.3 L340.9,152.0 L338.5,151.2 L335.5,149.3 L333.5,147.7 L330.3,147.3 L327.7,145.2 L326.0,142.6 L324.0,139.7 L323.5,137.3 L321.2,134.4 L320.1,131.6 L319.7,128.8 L320.3,125.6 L318.5,122.6 L318.5,119.6 L319.5,116.7 L320.0,113.7 L322.1,110.9 L323.0,108.0 L324.6,104.9 L325.8,103.4 L328.7,100.1 L330.1,99.1 L333.5,96.9 L335.7,96.1 L338.6,93.8 L340.9,92.4 L344.3,93.1 L347.1,91.3 L350.2,91.1 L353.3,91.0 L356.2,91.9 L359.4,93.8 L362.0,93.5 L365.0,95.4 L367.3,96.1 L369.2,98.9 L372.2,101.2 L373.4,103.1 L376.0,105.1 L377.7,108.1 L377.9,111.1 L379.8,113.9 L380.6,116.7 L380.5,119.5 L381.5,122.6" fill="#fff" stroke="#08201f" stroke-width="5.0"/><circle cx="358" cy="127" r="13" fill="#08201f"/><path d="M209.3,171.7 L244.9,172.6 L278.4,172.4 L313.0,172.6 L346.0,172.3 L382.0,171.3 L415.4,170.7 L414.7,171.8 L415.9,181.7 L414.9,191.3 L415.0,198.3 L415.7,208.5 L417.3,218.7 L415.9,227.0 L414.9,226.9 L381.2,225.9 L347.6,226.8 L312.2,228.1 L280.0,226.9 L243.5,227.7 L210.9,226.7 L209.2,225.8 L210.8,218.0 L210.5,208.7 L209.0,200.4 L209.0,189.6 L210.6,180.6 L209.7,171.5 Z" fill="#08201f" fill-opacity=".92" stroke="#08201f" stroke-width="5.0"/><path d="M216.0,173.2 L220.5,173.6 L225.1,173.9 L230.6,173.8 L235.2,173.2 L241.3,173.2 L245.0,174.5 L244.7,173.5 L244.8,177.8 L245.7,182.3 L246.1,185.3 L245.2,189.5 L245.6,193.8 L245.3,197.4 L244.7,196.4 L239.8,197.0 L235.3,197.5 L231.3,196.3 L225.4,196.8 L220.0,197.5 L215.3,196.6 L215.9,197.4 L215.2,193.4 L216.0,189.6 L216.2,186.0 L215.0,181.0 L215.4,177.6 L215.1,173.9 Z" fill="#EFE7D6" stroke="none"/><path d="M297.7,173.6 L302.5,173.5 L307.5,173.8 L312.8,174.2 L318.4,174.7 L322.9,173.2 L328.4,174.3 L328.4,173.9 L327.1,178.3 L328.5,180.8 L328.4,185.9 L327.6,189.4 L327.3,193.3 L328.2,196.4 L328.0,197.1 L323.1,196.9 L317.2,197.5 L312.2,197.1 L307.8,196.3 L303.1,197.6 L297.9,196.8 L298.5,196.4 L297.6,192.3 L298.9,188.6 L297.9,185.6 L298.2,182.0 L298.5,178.4 L298.8,174.5 Z" fill="#EFE7D6" stroke="none"/><path d="M380.8,174.0 L386.0,174.2 L389.7,174.3 L396.1,174.0 L400.9,173.9 L405.0,174.5 L409.5,174.2 L409.9,174.7 L409.5,177.6 L410.7,181.8 L410.8,185.2 L409.5,190.0 L409.7,193.8 L409.9,196.3 L409.8,197.1 L405.3,196.4 L399.8,197.1 L395.7,197.0 L391.0,197.0 L386.0,196.8 L380.1,197.6 L381.0,196.4 L381.3,193.3 L381.0,188.9 L381.1,185.7 L380.5,182.0 L381.2,178.1 L379.8,174.5 Z" fill="#EFE7D6" stroke="none"/><text x="313" y="268" text-anchor="middle" font-family="ui-monospace,Menlo,Consolas,monospace" font-size="38" font-weight="700" fill="#08201f" transform="rotate(-1 313 292)">TT-TNT</text></g><g stroke="#08201f" stroke-width="11.0" stroke-linecap="round" fill="none"><path d="M255.6,291.7 L255.0,301.8 L253.0,312.4 L252.8,323.4 L250.5,333.2"/><path d="M363.9,291.6 L363.1,302.2 L361.2,312.2 L360.4,323.9 L359.3,334.3"/></g><g fill="#08201f"><ellipse cx="247" cy="339" rx="21" ry="9" transform="rotate(-4 247 339)"/><ellipse cx="355" cy="339" rx="21" ry="9" transform="rotate(-3 355 339)"/></g><circle cx="320.0" cy="408" r="43.2" fill="#EFE7D6" fill-opacity=".96" stroke="#08201f" stroke-width="2.0" stroke-opacity=".3"/><circle cx="320.0" cy="408" r="19.84" fill="#0b1918"/><g fill="#08201f" fill-opacity=".5"><circle cx="274" cy="378" r="4.0"/><circle cx="358" cy="368" r="3.5"/><circle cx="296" cy="356" r="3.0"/></g><text x="320.0" y="531" text-anchor="middle" font-family="ui-monospace,Menlo,Consolas,monospace" font-size="23" fill="#08201f" fill-opacity=".62" transform="rotate(1 320.0 531)">early master</text><path d="M626.7,320.0 L623.8,349.9 L620.7,379.8 L612.5,408.6 L602.9,437.0 L590.2,464.6 L574.5,489.8 L555.8,514.7 L535.9,536.6 L514.3,557.0 L490.4,573.8 L464.3,590.0 L437.1,602.7 L408.6,612.0 L379.8,620.5 L350.0,625.0 L320.0,626.5 L290.1,624.2 L260.3,620.0 L231.2,612.4 L202.8,602.7 L176.0,590.4 L150.3,574.8 L126.0,555.8 L103.1,535.7 L84.1,514.3 L66.0,490.5 L50.7,464.1 L36.6,437.4 L27.5,408.8 L20.4,379.8 L15.8,349.9 L14.7,320.0 L16.4,290.0 L20.2,260.5 L26.5,231.1 L36.9,202.6 L50.7,175.5 L65.6,149.5 L84.1,126.3 L103.9,103.7 L125.8,84.2 L149.6,65.2 L175.9,49.9 L202.7,37.9 L231.3,26.5 L260.5,20.5 L290.0,16.4 L320.0,14.8 L350.0,15.4 L379.6,20.4 L408.6,26.4 L437.2,36.7 L463.9,49.5 L490.2,65.4 L514.4,83.9 L536.7,103.5 L556.6,125.7 L574.3,149.6 L589.7,175.9 L603.4,203.3 L613.7,231.3 L619.8,260.2 L624.6,290.0 L626.9,320.0" fill="none" stroke="#08201f" stroke-width="2.6" stroke-opacity=".5" stroke-linecap="round"/></svg>